# xmcd
#
# Track frame offsets:
# 150
# 18096
# 37786
# 55919
# 70387
# 87177
# 106453
# 120093
# 138105
# 160460
# 180278
# 197151
# 212636
#
# Disc length: 3129 seconds
#
#
# Revision: 2
# Processed by: cddbd v1.4PL0 Copyright (c) Steve Scherf et al.
# Submitted via: FreeRIP 2.30 
#
DISCID=a00c370d
DTITLE=Varios - Guitarras Mestizas Delta 2000 CD1
DYEAR=1900
DGENRE=
TTITLE0=Right Here Waiting
TTITLE1=Mestizo Feeling
TTITLE2=Paraules De Am'or
TTITLE3=Amigo
TTITLE4=Tierra Y Aire
TTITLE5=Blackbird
TTITLE6=En Mi Soledad
TTITLE7=Golden Blue
TTITLE8=Mnha De Caranval
TTITLE9=Love Story
TTITLE10=What A Diffrence A Day Meks
TTITLE11=Just The Way You Are
TTITLE12=Danzas Del Principe Igor
EXTD=
EXTT0=
EXTT1=
EXTT2=
EXTT3=
EXTT4=
EXTT5=
EXTT6=
EXTT7=
EXTT8=
EXTT9=
EXTT10=
EXTT11=
EXTT12=
PLAYORDER=
